<svg width="21" height="20" viewBox="0 0 21 20" fill="none" xmlns="http://www.w3.org/2000/svg">
<circle cx="10.1514" cy="10" r="9.25" fill="#121212" stroke="#121212" stroke-width="1.5"/>
<path d="M10.4734 10.3222L13.6956 10.3224C13.8737 10.3224 14.0177 10.1784 14.0177 10.0003C14.0177 9.8221 13.8737 9.67812 13.6956 9.67812L10.4734 9.67791L10.4734 6.45562C10.4734 6.27746 10.3294 6.13348 10.1512 6.13348C9.97309 6.13348 9.8291 6.27746 9.8291 6.45562L9.8291 9.67791L6.60717 9.67775C6.42901 9.67775 6.28503 9.82173 6.28503 9.99989C6.28503 10.0887 6.32103 10.1694 6.37935 10.2277C6.43767 10.286 6.51832 10.322 6.60717 10.322L9.8291 10.3222L9.8291 13.5443C9.8291 13.6331 9.8651 13.7138 9.92342 13.7721C9.98174 13.8304 10.0624 13.8664 10.1512 13.8664C10.3294 13.8664 10.4734 13.7224 10.4734 13.5443L10.4734 10.3222Z" fill="white" stroke="white" stroke-width="0.5"/>
</svg>
