<svg width="20" height="20" viewBox="0 0 20 20" fill="none" xmlns="http://www.w3.org/2000/svg">
<path d="M11.0352 0.0534333C10.6915 0.0187985 10.3462 0.00155741 10.0008 0.00170999H9.99038C9.41867 0.0111697 8.96156 0.479883 8.96644 1.05174V5.17373C8.96507 5.31258 8.99329 5.45005 9.04914 5.57714C9.22811 6.00314 9.66875 6.25794 10.1271 6.20072C10.6565 6.12138 11.045 5.66198 11.0352 5.12689V2.13945C14.8978 2.64646 17.8209 5.88291 17.9329 9.7771C18.0449 13.6713 15.3128 17.0705 11.4858 17.7986C7.65871 18.5269 3.86918 16.3685 2.54329 12.7053C1.21741 9.04214 2.74744 4.95829 6.15401 3.06818C6.60685 2.8117 6.79635 2.25694 6.59495 1.77708L6.59373 1.77419C6.48082 1.50123 6.25684 1.2896 5.97793 1.19211C5.69918 1.09476 5.39204 1.12101 5.13373 1.26412C0.823609 3.66567 -1.09046 8.85219 0.626176 13.4778C2.34266 18.1036 7.17687 20.7858 12.0102 19.7942C16.8435 18.8026 20.2311 14.4337 19.9876 9.50567C19.7443 4.57777 15.9427 0.563953 11.0352 0.0534333Z" fill="url(#paint0_linear)"/>
<path d="M6.2222 6.67798C6.63828 7.77362 7.99956 10.3605 9.01785 11.462C9.64387 12.1687 10.7128 12.2633 11.4533 11.6777C11.8237 11.3669 12.0466 10.915 12.068 10.432C12.0892 9.94905 11.9066 9.47927 11.5649 9.13719C10.5 8.07237 7.79709 6.6615 6.66376 6.23123C6.53681 6.18348 6.39354 6.21491 6.29803 6.31134C6.20267 6.40792 6.17292 6.55149 6.2222 6.67798Z" fill="url(#paint1_linear)"/>
<defs>
<linearGradient id="paint0_linear" x1="1.68836" y1="4.15707" x2="16.8819" y2="15.4561" gradientUnits="userSpaceOnUse">
<stop stop-color="#7642EE"/>
<stop offset="1" stop-color="#603FE6"/>
</linearGradient>
<linearGradient id="paint1_linear" x1="6.69433" y1="7.42528" x2="11.1446" y2="10.745" gradientUnits="userSpaceOnUse">
<stop stop-color="#7642EE"/>
<stop offset="1" stop-color="#603FE6"/>
</linearGradient>
</defs>
</svg>
