<svg width="20" height="20" viewBox="0 0 20 20" fill="none" xmlns="http://www.w3.org/2000/svg">
<path d="M17.0861 1.78035C16.8656 1.65188 16.4914 1.47531 15.9872 1.30285C13.9937 0.621016 11.7873 0.621016 9.6127 1.76258C7.89106 2.66594 6.14672 2.66594 4.55207 2.12078C4.40719 2.07125 4.27836 2.0223 4.16668 1.97641V0.83332C4.16668 0.373086 3.79355 0 3.33332 0C2.87309 0 2.5 0.373086 2.5 0.83332V2.50039V10.8487V19.1666C2.5 19.6269 2.87309 20 3.33332 20C3.79355 20 4.16664 19.6269 4.16664 19.1667V12.0969C6.11953 12.7266 8.26836 12.6984 10.3872 11.5867C12.1089 10.6832 13.8533 10.6832 15.448 11.2284C15.8408 11.3627 16.1168 11.4929 16.2473 11.5689C16.8029 11.8924 17.5 11.4916 17.5 10.8488V2.50043C17.5 2.20387 17.3424 1.92965 17.0861 1.78035ZM15.8333 9.60027C13.8805 8.97059 11.7316 8.9991 9.61277 10.1109C7.89102 11.0143 6.14668 11.0143 4.55199 10.4691C4.40719 10.4196 4.27824 10.3707 4.1666 10.3248V3.74891C6.11945 4.37859 8.26836 4.35008 10.3871 3.23832C12.109 2.33445 13.8532 2.33445 15.4478 2.8798C15.5927 2.92934 15.7216 2.97832 15.8333 3.02426V9.60027H15.8333Z" fill="url(#paint0_linear)"/>
<defs>
<linearGradient id="paint0_linear" x1="3.76623" y1="4.15584" x2="17.2651" y2="11.6841" gradientUnits="userSpaceOnUse">
<stop stop-color="#7642EE"/>
<stop offset="1" stop-color="#603FE6"/>
</linearGradient>
</defs>
</svg>
