<svg width="21" height="20" viewBox="0 0 21 20" fill="none" xmlns="http://www.w3.org/2000/svg">
<g clip-path="url(#clip0)">
<path d="M4.84473 10.5469C4.5184 10.5469 4.25293 10.8123 4.25293 11.1387C4.25293 11.465 4.5184 11.7305 4.84473 11.7305C5.17105 11.7305 5.4248 11.465 5.4248 11.1387C5.4248 10.8124 5.17102 10.5469 4.84473 10.5469Z" fill="white"/>
<path d="M10.1904 0C8.575 0 7.26074 1.31426 7.26074 2.92969C7.26074 4.54512 8.575 5.85938 10.1904 5.85938C11.8059 5.85938 13.1201 4.54512 13.1201 2.92969C13.1201 1.31426 11.8059 0 10.1904 0ZM10.1904 4.6875C9.22117 4.6875 8.43262 3.89895 8.43262 2.92969C8.43262 1.96043 9.22117 1.17188 10.1904 1.17188C11.1597 1.17188 11.9482 1.96043 11.9482 2.92969C11.9482 3.89895 11.1597 4.6875 10.1904 4.6875Z" fill="white"/>
<path d="M12.5342 8.20312H7.84668C7.52309 8.20312 7.26074 8.46547 7.26074 8.78906C7.26074 9.11266 7.52309 9.375 7.84668 9.375H12.5342C12.8578 9.375 13.1201 9.11266 13.1201 8.78906C13.1201 8.46547 12.8578 8.20312 12.5342 8.20312Z" fill="white"/>
<path d="M19.4649 8.88965C19.2361 8.66074 18.8651 8.66074 18.6362 8.88961C18.4074 9.11844 18.4074 9.48941 18.6362 9.71824C18.8576 9.93961 18.9795 10.2339 18.9795 10.5469C18.9795 11.193 18.4538 11.7188 17.8076 11.7188H17.7807C17.4837 8.4384 14.7188 5.85938 11.3623 5.85938H10.1904H8.43262C8.0598 5.85938 7.63258 5.90164 7.21934 5.97773C6.44328 5.15348 5.38113 4.6875 4.25293 4.6875C3.92934 4.6875 3.66699 4.94984 3.66699 5.27344V7.9109C2.96535 8.65922 2.45203 9.56395 2.17246 10.5469H1.90918C0.939922 10.5469 0.151367 11.3354 0.151367 12.3047V13.5156C0.151367 14.4849 0.939922 15.2695 1.90918 15.2695C2.11 15.2695 2.38992 15.27 2.6125 15.2713C3.02047 16.0739 3.58879 16.7986 4.25035 17.3516C4.25289 18.1286 4.25293 19.3996 4.25293 19.4141C4.25293 19.7377 4.51527 20 4.83887 20H7.18262C7.50621 20 7.76855 19.7377 7.76855 19.4141V18.7977C7.99 18.8175 8.21711 18.8281 8.43262 18.8281H11.3623V19.4141C11.3623 19.7377 11.6246 20 11.9482 20H14.292C14.6156 20 14.8779 19.7377 14.8779 19.4141C14.8779 19.4055 14.8779 18.6434 14.8799 17.7839C15.71 17.2391 16.4116 16.492 16.9221 15.6061C17.4031 14.7713 17.6951 13.8425 17.7806 12.8907H17.8076C19.1 12.8907 20.1514 11.8393 20.1514 10.5469C20.1514 9.9209 19.9076 9.3323 19.4649 8.88965ZM14.0011 16.9497C13.8207 17.0542 13.7094 17.2466 13.7088 17.4551C13.7074 17.9599 13.7067 18.4597 13.7064 18.8281H12.5342C12.5342 18.2789 12.5342 18.6124 12.5342 17.0703C12.5342 16.7467 12.2718 16.4844 11.9482 16.4844C11.6246 16.4844 11.3623 16.7467 11.3623 17.0703V17.6562H8.43262C8.21543 17.6562 7.98582 17.6436 7.76855 17.6207V17.0703C7.76855 16.7467 7.50621 16.4844 7.18262 16.4844C6.85902 16.4844 6.59668 16.7467 6.59668 17.0703C6.59668 18.1058 6.59668 18.1682 6.59668 18.8281H5.42457C5.42422 18.2845 5.42336 17.4964 5.42109 17.0648C5.42012 16.8818 5.33367 16.7098 5.18742 16.5997C4.48813 16.0736 3.89672 15.3132 3.52215 14.4587C3.43238 14.2539 3.23395 14.1181 3.01059 14.1085C2.85543 14.1019 2.06586 14.1016 1.90918 14.1016C1.58609 14.1016 1.32324 13.8387 1.32324 13.5156V12.3047C1.32324 11.9816 1.58609 11.7188 1.90918 11.7188H2.61082C2.61148 11.7188 2.61211 11.7189 2.61277 11.7189C2.61371 11.7189 2.61461 11.7188 2.61555 11.7188C2.92574 11.7188 3.14465 11.5218 3.20563 11.2715C3.22879 11.1763 3.27656 10.9804 3.28766 10.9103C3.53121 10.0253 4.00668 9.21551 4.66457 8.56602C4.77609 8.45594 4.83887 8.30574 4.83887 8.14902V5.91965C5.50227 6.05801 6.10344 6.42957 6.54211 6.98508C6.6834 7.16402 6.91566 7.24473 7.13746 7.19199C7.56738 7.08984 8.03945 7.03125 8.43262 7.03125H11.3623C14.2701 7.03125 16.6357 9.39691 16.6357 12.3047C16.6357 14.1994 15.6016 16.0227 14.0011 16.9497Z" fill="white"/>
</g>
<defs>
<clipPath id="clip0">
<rect x="0.151367" width="20" height="20" fill="white"/>
</clipPath>
</defs>
</svg>
